<?xml version="1.0" standalone="no"?>
<!DOCTYPE svg PUBLIC "-//W3C//DTD SVG 20010904//EN"
 "http://www.w3.org/TR/2001/REC-SVG-20010904/DTD/svg10.dtd">
<svg version="1.0" xmlns="http://www.w3.org/2000/svg"
 width="181.000000pt" height="83.000000pt" viewBox="0 0 181.000000 83.000000"
 preserveAspectRatio="xMidYMid meet">

<g transform="translate(0.000000,83.000000) scale(0.100000,-0.100000)"
fill="#000000" stroke="none">
<path d="M34 775 c-17 -42 -18 -68 -2 -112 11 -31 14 -33 63 -33 61 0 100 17
115 48 14 31 13 45 -6 92 l-16 40 -70 0 -69 0 -15 -35z"/>
<path d="M236 678 c-8 -21 -10 -37 -4 -45 5 -7 7 -21 4 -31 -4 -11 -2 -31 3
-46 10 -25 14 -26 79 -26 l68 0 16 45 c15 41 16 49 2 90 l-16 45 -69 0 c-68 0
-69 0 -83 -32z"/>
<path d="M34 565 c-18 -44 -18 -64 1 -109 l15 -36 69 0 68 0 17 45 c31 80 -10
134 -102 135 -51 0 -54 -1 -68 -35z"/>
<path d="M996 424 c-24 -71 -20 -82 17 -39 28 32 40 38 85 43 l52 5 0 -202 0
-201 -24 0 c-14 0 -28 -4 -31 -10 -4 -6 27 -10 86 -10 56 0 89 4 84 9 -6 5
-19 11 -30 13 -19 3 -20 11 -20 198 l0 195 39 3 c59 5 82 -4 96 -39 9 -22 15
-27 21 -17 12 18 11 98 -1 98 -5 0 -10 -4 -10 -10 0 -14 -323 -13 -337 1 -8 8
-15 -3 -27 -37z"/>
<path d="M270 267 c-80 -213 -92 -237 -120 -237 -10 0 -22 -4 -25 -10 -4 -6
23 -10 75 -10 52 0 79 4 75 10 -3 6 -17 10 -31 10 -20 0 -24 5 -24 28 0 15 9
46 20 70 l19 42 74 0 74 0 22 -56 c27 -72 27 -84 -3 -84 -14 0 -28 -4 -31 -10
-4 -6 29 -10 92 -9 92 1 96 1 67 14 -27 12 -38 30 -83 140 -29 70 -66 162 -82
206 -17 43 -34 81 -39 84 -4 2 -40 -82 -80 -188z m93 11 c15 -40 27 -76 27
-80 0 -12 -120 -10 -120 1 0 18 52 151 59 151 3 0 19 -33 34 -72z"/>
<path d="M753 451 c-59 -15 -121 -60 -149 -107 -91 -154 19 -339 200 -337 107
1 155 35 144 103 -3 19 -7 16 -35 -24 -37 -53 -71 -70 -126 -63 -90 12 -163
118 -155 226 2 31 13 75 24 97 54 104 199 125 259 36 l25 -37 0 43 c0 35 -4
44 -23 51 -36 14 -129 21 -164 12z"/>
<path d="M1522 453 c-39 -8 -92 -67 -92 -101 0 -56 19 -79 102 -122 96 -51
118 -73 118 -119 -1 -59 -39 -91 -107 -91 -51 0 -80 22 -94 70 -16 54 -31 50
-27 -7 3 -42 7 -50 33 -62 16 -8 55 -14 86 -14 68 0 119 27 143 77 37 78 9
129 -103 185 -112 57 -136 97 -86 146 33 34 105 35 135 3 11 -12 20 -27 20
-34 0 -7 5 -16 10 -19 6 -4 10 10 10 33 0 26 -5 42 -15 46 -23 8 -108 15 -133
9z"/>
</g>
</svg>
