<?xml version="1.0" standalone="no"?>
<!DOCTYPE svg PUBLIC "-//W3C//DTD SVG 20010904//EN"
 "http://www.w3.org/TR/2001/REC-SVG-20010904/DTD/svg10.dtd">
<svg version="1.0" xmlns="http://www.w3.org/2000/svg"
 width="152.000000pt" height="85.000000pt" viewBox="0 0 152.000000 85.000000"
 preserveAspectRatio="xMidYMid meet">

<g transform="translate(0.000000,85.000000) scale(0.100000,-0.100000)"
fill="#000000" stroke="none">
<path d="M368 825 c-95 -33 -149 -68 -212 -135 -76 -83 -99 -147 -94 -265 3
-72 9 -102 30 -148 39 -82 143 -184 233 -228 l70 -34 373 -3 c308 -2 389 0
460 13 48 9 95 18 105 21 18 6 117 200 117 230 0 35 -63 1 -124 -67 -41 -46
-53 -53 -118 -70 -145 -37 -270 -52 -428 -52 -172 0 -230 12 -305 63 -91 63
-132 136 -142 249 -10 117 33 203 131 266 70 45 129 63 244 76 53 5 139 20
190 31 51 11 95 18 98 16 3 -3 -14 -18 -38 -32 l-43 -27 38 6 c31 5 48 0 93
-26 30 -17 75 -50 98 -73 24 -22 73 -68 110 -100 78 -68 92 -87 99 -138 5 -32
3 -38 -12 -38 -10 0 -24 -6 -30 -14 -16 -19 -64 -29 -100 -21 -22 5 -31 14
-36 36 -6 24 -14 31 -51 40 -52 13 -55 23 -12 38 17 6 29 14 25 17 -3 3 -53
-6 -111 -21 l-106 -27 -47 23 c-26 13 -56 36 -66 50 -22 30 -25 92 -7 115 7 8
11 17 8 20 -3 3 -17 -9 -32 -26 -23 -28 -26 -40 -26 -111 0 -75 -2 -81 -37
-126 -36 -48 -88 -152 -79 -160 2 -2 21 21 41 51 20 31 55 70 78 88 38 30 46
33 106 30 39 -1 85 4 117 15 45 14 59 14 99 3 49 -14 65 -31 46 -54 -9 -11 1
-17 50 -30 65 -19 123 -15 156 9 10 8 31 15 47 15 l29 0 -6 67 c-8 79 -32 120
-109 178 -80 61 -174 153 -165 161 4 5 40 2 79 -4 70 -12 74 -15 144 -82 117
-114 132 -93 51 70 l-52 105 -75 17 c-62 13 -139 16 -455 16 -372 1 -381 0
-447 -23z m512 -15 c-18 -11 -94 -11 -130 0 -17 5 2 8 60 9 58 0 80 -2 70 -9z
m389 -34 c30 -7 58 -20 62 -27 5 -8 20 -34 35 -59 l27 -45 -49 51 c-44 47 -56
53 -121 68 -40 9 -86 16 -103 16 -21 0 -29 4 -24 11 8 14 93 6 173 -15z m-846
-80 c-110 -81 -164 -197 -145 -313 15 -90 46 -148 118 -220 34 -35 59 -63 55
-63 -22 0 -123 86 -154 132 -120 176 -67 383 123 483 68 36 69 30 3 -19z m930
-548 c-24 -37 -38 -46 -95 -65 -84 -29 -273 -53 -391 -52 l-92 2 105 9 c129
10 322 42 381 62 27 9 58 31 79 54 19 22 37 38 39 37 2 -2 -10 -23 -26 -47z"/>
<path d="M1030 634 c19 -8 46 -26 60 -38 14 -13 37 -26 52 -30 25 -6 27 -4 20
15 -5 11 -10 19 -12 18 -3 -2 -26 9 -51 24 -25 15 -59 27 -75 27 l-29 -1 35
-15z"/>
<path d="M1312 435 c6 -14 13 -23 16 -21 7 7 -9 46 -18 46 -5 0 -4 -11 2 -25z"/>
</g>
</svg>
