<?xml version="1.0" standalone="no"?>
<!DOCTYPE svg PUBLIC "-//W3C//DTD SVG 20010904//EN"
 "http://www.w3.org/TR/2001/REC-SVG-20010904/DTD/svg10.dtd">
<svg version="1.0" xmlns="http://www.w3.org/2000/svg"
 width="83.000000pt" height="81.000000pt" viewBox="0 0 83.000000 81.000000"
 preserveAspectRatio="xMidYMid meet">

<g transform="translate(0.000000,81.000000) scale(0.100000,-0.100000)"
fill="#000000" stroke="none">
<path d="M354 784 c-68 -13 -143 -44 -174 -73 -71 -65 -84 -81 -107 -126 -31
-60 -45 -105 -33 -105 5 0 11 10 15 23 16 56 64 133 111 176 68 62 147 93 245
97 138 5 247 -48 319 -154 147 -220 51 -491 -205 -578 -74 -25 -197 -15 -267
21 -84 43 -178 145 -194 210 -2 6 -6 21 -10 35 -4 14 -7 55 -8 92 -1 38 -4 68
-8 68 -14 0 -8 -126 8 -181 15 -48 88 -169 103 -169 3 0 20 -12 36 -26 58 -51
111 -68 222 -71 95 -2 108 0 168 27 90 41 160 108 200 194 56 119 46 274 -26
378 -87 128 -243 192 -395 162z"/>
<path d="M408 763 c7 -3 16 -2 19 1 4 3 -2 6 -13 5 -11 0 -14 -3 -6 -6z"/>
<path d="M336 753 c-15 -4 -16 -7 -5 -15 10 -6 3 -7 -21 -4 -31 5 -32 5 -10
-4 13 -6 28 -16 32 -23 5 -8 8 -7 8 5 0 9 7 24 16 32 16 16 13 17 -20 9z"/>
<path d="M395 741 c-3 -6 -11 -9 -16 -5 -6 3 -5 -3 3 -15 l13 -21 8 22 c8 23
3 36 -8 19z"/>
<path d="M495 736 c-11 -8 -16 -19 -12 -30 10 -25 42 -15 41 12 -1 20 3 22 25
17 20 -4 22 -3 11 5 -21 14 -43 12 -65 -4z m17 -21 c0 -5 -5 -11 -11 -13 -6
-2 -11 4 -11 13 0 9 5 15 11 13 6 -2 11 -8 11 -13z"/>
<path d="M235 711 c-28 -17 -84 -73 -59 -58 7 4 17 0 24 -8 6 -7 18 -11 25 -9
18 7 7 34 -13 34 -14 0 -14 2 1 18 14 14 19 14 26 4 5 -8 11 -13 15 -13 20 3
26 0 20 -11 -5 -7 -3 -8 6 -3 10 6 10 10 -2 19 -8 6 -14 19 -12 29 3 21 5 21
-31 -2z m-20 -59 c-3 -3 -11 0 -18 7 -9 10 -8 11 6 5 10 -3 15 -9 12 -12z"/>
<path d="M599 713 c53 -39 124 -117 141 -157 11 -22 23 -70 29 -105 13 -82
-11 -179 -63 -250 -47 -64 -136 -123 -136 -91 0 6 -5 9 -11 8 -6 -2 -14 3 -17
11 -3 9 0 11 8 6 9 -6 11 -4 6 4 -5 7 0 19 10 27 11 9 13 13 6 9 -7 -4 -16 3
-21 17 -6 13 -10 17 -10 11 -1 -13 -36 -53 -47 -53 -3 0 -4 7 0 15 6 17 0 18
-29 5 -17 -7 -17 -9 -2 -9 9 -1 17 -5 17 -11 0 -5 11 -10 23 -10 16 0 28 -9
36 -26 14 -32 15 -31 -40 -49 l-44 -14 40 6 c22 3 47 11 55 18 8 7 26 15 40
18 33 8 98 64 133 114 38 55 68 166 63 229 -5 57 -42 147 -81 199 -15 19 -50
48 -79 65 -28 17 -40 22 -27 13z m-55 -548 c-4 -8 -11 -12 -16 -9 -6 4 -5 10
3 15 19 12 19 11 13 -6z"/>
<path d="M547 706 c-10 -26 -4 -29 19 -10 10 8 14 13 7 10 -6 -4 -13 -1 -15 6
-3 7 -7 5 -11 -6z"/>
<path d="M414 701 c-5 -4 -30 -13 -56 -20 -25 -6 -69 -25 -97 -43 -66 -40
-121 -141 -121 -222 0 -98 41 -189 80 -179 16 4 20 0 20 -17 0 -16 -4 -20 -13
-14 -7 5 -6 2 3 -6 9 -8 27 -22 40 -31 20 -13 22 -19 13 -45 -12 -36 -32 -34
-85 8 -34 28 -54 59 -26 42 6 -4 8 -3 4 4 -3 6 -2 13 4 17 5 3 10 11 10 17 0
7 -4 7 -13 -1 -8 -6 -17 -8 -20 -4 -4 3 -7 1 -7 -6 0 -7 -5 -9 -11 -5 -6 3 -3
-6 7 -21 24 -36 104 -97 123 -93 9 2 21 -3 27 -10 7 -10 35 -16 80 -18 l69 -3
-72 11 c-63 9 -72 12 -77 34 -4 14 -2 32 3 42 6 9 11 12 11 5 0 -21 30 -2 30
19 0 14 5 18 16 14 9 -3 18 -6 20 -6 13 0 1 -29 -13 -33 -14 -4 -12 -5 5 -6
13 -1 22 5 22 14 0 8 8 15 18 16 15 0 14 2 -3 10 -17 8 -16 9 8 6 17 -3 27 0
27 8 0 20 -30 26 -46 10 -19 -19 -28 -19 -44 0 -14 17 0 21 17 4 7 -7 12 -6
16 4 3 9 -2 17 -13 20 -21 5 -36 -8 -41 -37 -2 -11 -11 -21 -19 -23 -12 -4
-13 -3 -1 5 11 8 10 11 -5 15 -15 4 -15 5 -3 6 25 2 19 59 -8 80 -15 13 -18
22 -11 34 5 9 14 17 20 17 9 0 9 -3 0 -12 -7 -7 -12 -17 -12 -23 0 -5 7 -1 15
9 19 25 30 15 16 -13 -10 -17 -9 -20 4 -15 8 3 12 10 9 15 -3 5 -1 9 5 9 6 0
17 -13 26 -30 11 -21 20 -27 32 -23 10 4 14 2 10 -4 -5 -7 0 -9 14 -6 16 4 18
8 7 14 -8 6 1 6 22 3 32 -6 34 -5 16 8 -14 11 -16 17 -7 22 16 10 20 5 23 -24
3 -21 -2 -26 -32 -31 -22 -4 -26 -7 -12 -8 12 0 22 -7 22 -14 0 -24 51 -12 69
17 22 37 66 33 66 -6 -1 -26 0 -27 18 -10 11 9 30 33 42 52 23 36 44 91 30 78
-5 -5 -15 1 -22 12 -8 11 -18 18 -23 15 -4 -3 -7 3 -6 12 4 27 22 26 45 -3 12
-15 21 -21 21 -14 0 6 -10 20 -22 29 -20 17 -20 19 -6 40 11 16 17 18 20 9 3
-7 5 0 5 16 0 18 -2 23 -7 15 -6 -9 -17 -5 -43 17 -31 25 -48 54 -32 54 14 0
64 -31 68 -42 3 -7 6 -3 6 10 1 15 5 21 13 16 7 -5 8 -3 4 5 -5 7 0 18 10 26
11 8 15 15 11 15 -4 0 -18 -11 -31 -24 l-22 -25 -32 19 c-18 11 -32 26 -32 35
0 19 29 9 53 -19 18 -21 18 -21 8 0 -5 11 -17 26 -25 34 -19 15 -21 34 -3 24
7 -4 9 -3 4 2 -5 5 -12 9 -15 9 -4 0 -28 12 -53 27 -26 15 -69 33 -95 40 -27
7 -52 16 -55 20 -3 4 -9 4 -15 -1z m35 -31 c12 6 31 5 57 -3 l39 -12 -30 -7
c-28 -6 -28 -7 7 -5 25 1 47 -6 68 -22 43 -31 32 -36 -31 -12 -29 11 -55 18
-57 16 -3 -3 -12 1 -20 8 -13 10 -14 9 -7 -3 19 -31 15 -42 -16 -38 -19 3 -29
0 -29 -8 0 -7 8 -11 18 -9 9 2 30 4 46 4 28 1 29 2 11 15 -18 13 -17 14 7 14
18 0 25 -5 21 -14 -3 -9 2 -14 16 -14 19 0 21 -6 21 -68 0 -56 -4 -72 -20 -87
-23 -21 -27 -74 -7 -94 10 -11 6 -12 -18 -9 -16 3 -24 3 -17 1 8 -3 10 -12 7
-24 -4 -11 -2 -19 4 -19 6 0 10 5 8 12 -1 7 14 15 36 18 25 5 37 3 37 -5 0 -7
-11 -10 -31 -7 -24 3 -30 1 -27 -9 7 -21 68 -25 68 -4 0 8 7 18 15 21 8 4 15
12 15 20 0 8 5 14 11 14 7 0 9 -11 5 -30 -4 -23 -2 -29 7 -24 7 4 8 3 4 -2
-13 -14 -31 -11 -39 6 -5 11 -7 8 -7 -9 -1 -23 -3 -24 -57 -17 -71 8 -97 22
-91 47 4 15 0 19 -20 19 -25 0 -25 1 -9 19 10 11 13 22 8 25 -6 3 -13 0 -16
-6 -3 -7 -3 -2 0 12 4 14 12 28 18 33 8 5 6 10 -4 17 -8 5 -11 10 -6 10 6 0 5
5 -1 11 -9 9 -8 18 4 35 14 22 14 24 -1 24 -10 0 -15 4 -12 9 3 5 -1 27 -8 49
l-15 40 29 -3 c24 -3 27 -1 22 17 -3 11 1 24 9 28 7 5 10 12 6 16 -3 4 -13 1
-22 -6 -12 -10 -18 -10 -30 0 -8 7 -12 17 -8 24 5 7 9 5 11 -6 3 -14 8 -16 21
-8z m-64 1 c-17 -7 -17 -8 8 -14 19 -5 25 -12 20 -23 -4 -11 -8 -12 -13 -4 -5
8 -9 5 -13 -9 -2 -11 0 -22 7 -24 6 -2 -11 -4 -39 -4 -116 -2 -125 -4 -125
-35 0 -15 -3 -28 -7 -28 -5 0 -19 -10 -33 -21 l-25 -21 27 16 c33 19 38 20 38
4 0 -7 -17 -30 -37 -53 -26 -27 -28 -31 -7 -12 16 15 33 27 37 27 15 0 6 -38
-14 -56 -11 -10 -25 -28 -31 -39 -6 -14 -2 -12 16 8 14 15 28 27 31 27 15 0 2
-46 -22 -78 -16 -20 -20 -31 -10 -23 15 12 17 11 17 -13 0 -15 4 -25 8 -22 5
3 9 -1 9 -9 0 -7 -8 -13 -18 -12 -30 2 -54 72 -54 157 0 65 4 83 30 129 32 59
92 108 153 128 42 13 79 16 47 4z m60 -41 c3 -5 1 -10 -4 -10 -6 0 -11 5 -11
10 0 6 2 10 4 10 3 0 8 -4 11 -10z m-185 -176 c0 -69 -4 -114 -10 -114 -6 0
-10 47 -10 121 0 77 4 118 10 114 6 -4 10 -55 10 -121z m151 37 c0 -47 2 -116
3 -153 2 -56 0 -67 -14 -71 -14 -3 -16 0 -12 17 5 18 3 19 -10 8 -9 -7 -18 -9
-20 -5 -1 5 -18 19 -35 32 l-33 22 0 119 0 120 60 -1 60 -1 1 -87z m189 13 c0
-47 -4 -73 -10 -69 -5 3 -10 37 -10 76 0 39 4 69 10 69 6 0 10 -32 10 -76z
m57 -60 c10 -21 8 -27 -14 -43 -26 -21 -48 -19 -57 6 -5 13 -8 12 -22 -2 -9
-9 -19 -13 -22 -10 -3 3 3 12 14 19 16 13 21 12 37 -1 9 -9 17 -14 18 -12 4
20 8 37 14 52 4 10 3 17 -4 17 -6 0 -11 5 -11 10 0 17 34 -10 47 -36z m-91
-79 c-3 -8 -1 -15 4 -15 6 0 10 8 11 18 0 10 3 12 6 5 2 -7 12 -13 21 -13 15
-1 14 -3 -2 -15 -22 -17 -52 -20 -60 -6 -8 12 4 41 16 41 6 0 8 -7 4 -15z
m-340 -31 c-5 -13 -1 -14 24 -9 17 4 30 4 30 2 0 -39 -54 -52 -63 -15 -6 21
-1 38 10 38 3 0 2 -7 -1 -16z m234 -44 c0 -5 -4 -10 -10 -10 -5 0 -10 5 -10
10 0 6 5 10 10 10 6 0 10 -4 10 -10z m-200 -19 c0 -6 -4 -13 -10 -16 -5 -3
-10 1 -10 9 0 9 5 16 10 16 6 0 10 -4 10 -9z m384 -23 c-19 -33 -27 -39 -35
-26 -4 7 -3 18 3 25 14 17 42 17 32 1z m-361 -21 c3 -7 -2 -18 -11 -24 -14 -8
-17 -6 -18 13 -2 25 20 33 29 11z m227 -12 c0 -8 -4 -15 -9 -15 -13 0 -22 16
-14 24 11 11 23 6 23 -9z"/>
<path d="M440 550 c0 -5 5 -10 11 -10 5 0 7 5 4 10 -3 6 -8 10 -11 10 -2 0 -4
-4 -4 -10z"/>
<path d="M348 646 l24 -13 -23 -15 -23 -15 22 2 c29 2 35 9 27 34 -4 13 -15
21 -28 21 -22 -1 -22 -1 1 -14z"/>
<path d="M265 615 c-39 -17 -21 -18 25 0 19 7 28 14 20 14 -8 0 -28 -6 -45
-14z"/>
<path d="M304 542 c0 -10 6 -19 13 -19 7 0 13 9 13 19 0 10 -6 18 -13 18 -7 0
-13 -8 -13 -18z"/>
<path d="M375 450 c-3 -5 -1 -10 4 -10 6 0 11 5 11 10 0 6 -2 10 -4 10 -3 0
-8 -4 -11 -10z"/>
<path d="M375 390 c-3 -5 -2 -10 4 -10 5 0 13 5 16 10 3 6 2 10 -4 10 -5 0
-13 -4 -16 -10z"/>
<path d="M320 340 c0 -5 7 -10 16 -10 8 0 12 5 9 10 -3 6 -10 10 -16 10 -5 0
-9 -4 -9 -10z"/>
<path d="M370 340 c0 -5 5 -10 10 -10 6 0 10 5 10 10 0 6 -4 10 -10 10 -5 0
-10 -4 -10 -10z"/>
<path d="M626 435 c-4 -10 1 -15 16 -15 17 0 18 2 8 15 -7 8 -14 15 -15 15 -2
0 -5 -7 -9 -15z"/>
<path d="M140 635 c-7 -9 -11 -17 -9 -20 3 -2 10 5 17 15 14 24 10 26 -8 5z"/>
<path d="M630 642 c0 -4 9 -8 19 -8 11 0 17 4 15 8 -7 10 -34 10 -34 0z"/>
<path d="M154 619 c-3 -6 0 -15 7 -20 18 -11 26 -11 34 1 4 6 3 10 -2 9 -20
-3 -34 2 -28 11 3 6 4 10 1 10 -3 0 -8 -5 -12 -11z"/>
<path d="M110 585 c-16 -19 -4 -35 26 -35 26 0 29 7 13 30 -9 13 -10 12 -5 -2
4 -13 0 -18 -14 -18 -23 0 -26 10 -8 28 7 7 9 12 6 12 -3 0 -11 -7 -18 -15z"/>
<path d="M667 593 c-3 -5 1 -13 8 -20 10 -10 14 -9 19 3 3 9 6 18 6 20 0 7
-29 4 -33 -3z"/>
<path d="M118 523 c7 -3 16 -2 19 1 4 3 -2 6 -13 5 -11 0 -14 -3 -6 -6z"/>
<path d="M66 484 c-8 -21 -6 -134 2 -156 4 -10 7 25 7 77 0 52 -1 95 -1 95 -1
0 -5 -7 -8 -16z"/>
<path d="M110 490 c0 -5 5 -10 10 -10 6 0 10 5 10 10 0 6 -4 10 -10 10 -5 0
-10 -4 -10 -10z"/>
<path d="M708 493 c6 -2 18 -2 25 0 6 3 1 5 -13 5 -14 0 -19 -2 -12 -5z"/>
<path d="M85 470 c-4 -6 6 -10 22 -10 22 0 25 2 13 10 -19 12 -27 12 -35 0z"/>
<path d="M722 456 c8 -9 15 -10 19 -4 4 6 9 5 12 -3 4 -10 6 -9 6 4 1 12 -7
17 -24 17 -22 0 -24 -2 -13 -14z"/>
<path d="M100 431 l25 -8 -25 -12 -25 -11 25 3 c14 1 25 8 25 17 0 9 -10 16
-25 17 l-25 2 25 -8z"/>
<path d="M720 415 c-10 -12 -10 -19 -2 -27 15 -15 42 -2 41 19 -1 17 -2 17 -6
1 -2 -10 -11 -18 -19 -18 -17 0 -18 12 -2 28 7 7 9 12 6 12 -3 0 -11 -7 -18
-15z"/>
<path d="M717 346 c-3 -8 0 -17 8 -19 15 -7 25 1 25 20 0 17 -26 17 -33 -1z"/>
<path d="M86 305 c-9 -26 -7 -32 5 -12 6 10 9 21 6 23 -2 3 -7 -2 -11 -11z"/>
<path d="M107 306 c-10 -25 -9 -25 13 -19 11 3 20 13 20 22 0 13 -2 13 -9 2
-7 -11 -9 -11 -13 0 -3 9 -6 8 -11 -5z"/>
<path d="M705 290 c3 -5 10 -10 16 -10 5 0 9 5 9 10 0 6 -7 10 -16 10 -8 0
-12 -4 -9 -10z"/>
<path d="M690 271 c0 -5 7 -11 14 -14 10 -4 13 -1 9 9 -6 15 -23 19 -23 5z"/>
<path d="M114 256 c-16 -12 -17 -17 -6 -28 11 -11 12 -10 7 5 -5 12 -2 17 10
17 11 0 15 -5 11 -15 -7 -20 8 -19 24 1 11 12 11 15 -1 12 -8 -2 -13 3 -11 10
3 16 -10 15 -34 -2z"/>
<path d="M329 233 c-13 -16 -12 -17 3 -5 9 8 23 10 29 6 8 -4 9 -3 5 4 -10 17
-21 15 -37 -5z"/>
<path d="M680 240 c8 -5 20 -10 25 -10 6 0 3 5 -5 10 -8 5 -19 10 -25 10 -5 0
-3 -5 5 -10z"/>
<path d="M653 213 c-20 -7 -15 -23 7 -23 11 0 20 4 20 9 0 13 -12 19 -27 14z"/>
<path d="M430 146 c0 -8 -8 -17 -17 -19 -12 -3 -8 -5 9 -6 21 -1 25 3 21 19
-6 23 -13 26 -13 6z"/>
<path d="M497 123 c-12 -12 -7 -23 11 -23 15 0 15 -2 2 -11 -12 -9 -12 -10 -1
-7 22 6 25 28 4 28 -15 0 -16 2 -3 10 8 5 10 10 4 10 -6 0 -14 -3 -17 -7z"/>
<path d="M320 100 c0 -11 4 -20 10 -20 5 0 7 7 4 15 -4 10 0 15 11 15 11 0 15
-5 11 -15 -3 -8 -2 -15 2 -16 47 -5 52 -4 52 10 1 14 2 13 11 -1 13 -24 25
-23 32 3 4 15 2 18 -7 10 -7 -6 -16 -8 -20 -4 -15 16 -46 13 -47 -5 0 -13 -2
-12 -9 6 -12 28 -50 30 -50 2z"/>
<path d="M472 90 c0 -14 2 -19 5 -12 2 6 2 18 0 25 -3 6 -5 1 -5 -13z"/>
</g>
</svg>
