<?xml version="1.0" standalone="no"?>
<!DOCTYPE svg PUBLIC "-//W3C//DTD SVG 20010904//EN"
 "http://www.w3.org/TR/2001/REC-SVG-20010904/DTD/svg10.dtd">
<svg version="1.0" xmlns="http://www.w3.org/2000/svg"
 width="102.000000pt" height="52.000000pt" viewBox="0 0 102.000000 52.000000"
 preserveAspectRatio="xMidYMid meet">

<g transform="translate(0.000000,52.000000) scale(0.100000,-0.100000)"
fill="#000000" stroke="none">
<path d="M460 461 c0 -15 -3 -49 -6 -75 l-7 -46 42 0 41 0 0 -77 c0 -100 16
-84 23 24 l6 82 -42 3 -42 3 3 58 c3 36 0 57 -7 57 -6 0 -11 -13 -11 -29z"/>
<path d="M490 436 c0 -53 1 -56 24 -56 18 0 26 6 28 22 2 12 9 24 17 26 12 4
13 -15 7 -119 -4 -68 -11 -125 -16 -127 -6 -2 -10 -17 -10 -33 0 -28 2 -29 45
-29 43 0 45 1 45 30 0 17 -4 30 -9 30 -5 0 -7 17 -5 38 2 20 6 77 10 125 4 60
10 87 17 84 7 -2 12 -15 12 -28 0 -18 6 -25 26 -27 25 -3 27 0 32 50 2 29 4
54 3 55 0 0 -52 4 -113 8 l-113 8 0 -57z"/>
<path d="M330 451 c0 -16 5 -31 11 -33 15 -5 39 -241 27 -249 -11 -7 -7 -50 5
-49 4 0 25 0 47 0 36 0 40 3 40 25 0 13 -6 28 -13 32 -19 11 -44 243 -27 253
7 4 9 16 5 29 -5 17 -14 21 -51 21 -42 0 -44 -1 -44 -29z"/>
<path d="M293 429 c3 -23 10 -45 15 -48 14 -9 35 -213 23 -221 -5 -3 -7 -25
-4 -49 l6 -43 45 6 c25 3 53 6 63 6 11 0 19 7 19 15 0 13 -10 14 -56 9 l-57
-7 7 69 c7 78 -8 237 -24 242 -5 2 -10 17 -10 33 0 20 -5 29 -16 29 -14 0 -16
-8 -11 -41z"/>
<path d="M770 419 c-14 -55 -14 -54 17 -63 18 -6 24 -2 29 18 6 26 18 33 28
18 9 -15 -57 -227 -76 -245 -27 -26 -19 -49 21 -59 48 -13 65 -4 58 31 -4 16
2 60 13 98 10 37 23 87 30 111 12 48 40 59 37 15 -2 -23 2 -28 22 -28 20 0 26
8 37 45 7 24 11 46 9 48 -2 2 -51 17 -109 32 l-104 28 -12 -49z"/>
<path d="M143 437 c-64 -17 -73 -23 -73 -43 0 -13 7 -27 15 -32 18 -10 77
-219 69 -244 -3 -10 -3 -26 1 -37 5 -16 10 -17 50 -8 50 12 59 33 26 64 -10
10 -21 30 -25 45 -6 25 -3 28 29 34 23 4 42 16 52 31 16 24 16 30 -1 97 -29
112 -42 120 -143 93z m87 -100 c13 -50 9 -63 -24 -69 -16 -2 -23 8 -37 54
l-17 57 27 9 c32 12 35 9 51 -51z"/>
<path d="M178 375 c-12 -12 19 -90 37 -94 13 -2 16 1 12 12 -3 9 -9 32 -13 51
-6 32 -21 45 -36 31z"/>
<path d="M735 399 c-11 -34 -21 -57 -23 -50 -6 17 -72 14 -72 -4 0 -10 10 -15
31 -15 16 0 50 -5 75 -11 50 -13 51 -19 29 -93 -17 -57 -19 -74 -6 -61 7 8 51
153 51 170 0 3 -6 5 -14 5 -8 0 -26 4 -40 9 -24 10 -24 10 -11 60 19 72 2 63
-20 -10z"/>
<path d="M35 373 c3 -21 12 -43 20 -49 18 -13 69 -190 61 -211 -9 -23 4 -84
19 -89 21 -8 128 27 117 38 -6 6 -23 6 -48 -1 -22 -6 -42 -11 -46 -11 -11 0
-29 75 -19 78 11 4 -44 213 -58 221 -5 4 -14 19 -20 34 -16 42 -35 34 -26 -10z"/>
<path d="M894 299 c-9 -15 5 -26 44 -34 25 -5 32 -3 32 9 0 17 -5 21 -42 30
-15 3 -30 1 -34 -5z"/>
<path d="M248 208 c-16 -5 -28 -14 -28 -19 0 -15 37 -10 54 7 27 26 20 30 -26
12z"/>
<path d="M508 174 c-5 -4 -8 -26 -8 -50 l0 -42 65 -4 c57 -3 65 -1 65 15 0 14
-9 17 -54 17 l-55 0 -3 36 c-2 20 -6 32 -10 28z"/>
<path d="M720 109 c-6 -23 -10 -42 -8 -44 4 -4 110 -35 120 -35 4 0 8 7 8 15
0 9 -20 20 -55 30 -52 15 -54 17 -45 41 12 31 12 34 0 34 -5 0 -14 -18 -20
-41z"/>
</g>
</svg>
