<?xml version="1.0" standalone="no"?>
<!DOCTYPE svg PUBLIC "-//W3C//DTD SVG 20010904//EN"
 "http://www.w3.org/TR/2001/REC-SVG-20010904/DTD/svg10.dtd">
<svg version="1.0" xmlns="http://www.w3.org/2000/svg"
 width="54.000000pt" height="79.000000pt" viewBox="0 0 54.000000 79.000000"
 preserveAspectRatio="xMidYMid meet">

<g transform="translate(0.000000,79.000000) scale(0.100000,-0.100000)"
fill="#000000" stroke="none">
<path d="M69 733 l-59 -56 0 -141 0 -142 53 -51 c28 -28 61 -53 71 -55 11 -1
21 -8 23 -15 3 -9 -17 -13 -69 -15 l-73 -3 -3 -69 -3 -69 58 -59 57 -58 146 0
146 0 57 58 57 58 0 135 0 135 -53 52 c-48 48 -56 52 -100 52 -26 0 -47 4 -47
9 0 4 11 6 25 3 15 -2 25 0 25 7 0 7 26 11 75 11 l75 0 0 78 0 78 -58 57 -58
57 -143 0 -142 0 -60 -57z m393 -10 l48 -47 0 -73 0 -73 -76 0 c-47 0 -73 -4
-69 -10 4 -6 -6 -7 -25 -4 -18 4 -30 2 -30 -4 0 -19 43 -42 79 -42 28 0 44 -9
78 -42 l43 -42 0 -135 0 -135 -47 -48 -47 -48 -145 0 -145 0 -48 47 c-47 46
-48 48 -48 110 l0 63 70 0 c39 0 70 4 70 8 0 5 12 14 26 20 29 14 24 33 -6 25
-11 -3 -20 0 -20 6 0 6 -13 11 -28 11 -20 0 -40 13 -70 43 l-42 43 0 139 0
139 47 48 47 48 145 0 145 0 48 -47z"/>
<path d="M87 712 l-47 -48 0 -135 0 -135 39 -38 c35 -34 42 -37 86 -34 49 3
78 28 33 28 -22 1 -21 2 10 28 39 33 41 44 5 36 l-28 -6 23 16 c31 24 28 36
-8 26 -23 -7 -30 -5 -30 5 0 8 14 24 30 37 40 29 39 46 -2 41 l-33 -4 25 20
c14 11 33 23 43 27 9 3 17 10 17 15 0 5 -8 9 -17 9 -13 0 -15 2 -5 8 7 5 10
16 6 25 -3 9 -1 17 4 17 6 0 14 16 18 35 6 35 24 49 24 20 0 -23 0 -23 15 -52
8 -14 11 -31 8 -36 -3 -6 2 -16 12 -24 17 -12 17 -13 2 -13 -9 0 -17 -3 -17
-7 0 -18 59 -33 127 -33 l73 0 0 64 c0 64 0 65 -47 110 l-48 46 -135 0 -136 0
-47 -48z"/>
<path d="M370 444 c0 -12 -7 -14 -30 -9 -38 8 -40 -9 -2 -29 l27 -15 -30 -1
-30 -1 33 -27 c38 -32 41 -46 7 -38 -32 8 -33 -11 -1 -24 40 -15 44 -33 5 -26
l-34 7 25 -22 c14 -12 24 -26 23 -30 -2 -5 6 -18 17 -29 25 -25 29 -60 5 -40
-9 7 -33 16 -55 20 l-40 7 0 -49 c0 -43 4 -53 32 -79 44 -39 70 -37 129 13
l49 41 0 137 0 136 -38 37 c-40 40 -92 51 -92 21z"/>
<path d="M40 177 c0 -50 3 -55 48 -100 61 -60 89 -62 131 -8 26 33 31 47 31
95 0 50 -2 55 -17 47 -47 -23 -93 -40 -93 -33 0 4 7 18 16 30 l15 22 -65 0
-66 0 0 -53z"/>
</g>
</svg>
