<?xml version="1.0" standalone="no"?>
<!DOCTYPE svg PUBLIC "-//W3C//DTD SVG 20010904//EN"
 "http://www.w3.org/TR/2001/REC-SVG-20010904/DTD/svg10.dtd">
<svg version="1.0" xmlns="http://www.w3.org/2000/svg"
 width="172.000000pt" height="64.000000pt" viewBox="0 0 172.000000 64.000000"
 preserveAspectRatio="xMidYMid meet">

<g transform="translate(0.000000,64.000000) scale(0.100000,-0.100000)"
fill="#000000" stroke="none">
<path d="M202 138 l3 -123 30 0 c29 0 30 2 33 48 l3 47 44 0 44 0 3 -47 c3
-44 5 -48 31 -51 l27 -3 0 125 0 126 -29 0 c-28 0 -30 -2 -33 -47 l-3 -48 -42
-3 -42 -3 -3 48 c-3 46 -4 48 -36 51 l-33 3 3 -123z"/>
<path d="M480 135 l0 -126 68 3 c64 3 67 4 67 28 0 22 -5 25 -37 28 -30 3 -38
7 -38 23 0 15 7 19 35 19 30 0 35 3 35 24 0 21 -6 25 -32 28 -25 2 -33 8 -33
23 0 16 8 21 38 23 32 3 37 7 37 28 0 23 -2 24 -70 24 l-70 0 0 -125z"/>
<path d="M708 162 c-52 -141 -55 -152 -30 -152 31 0 52 11 52 26 0 10 14 14
49 14 41 0 51 -4 56 -20 7 -23 65 -29 65 -7 0 6 -18 61 -40 121 -22 61 -40
111 -40 113 0 2 -17 3 -38 3 l-38 0 -36 -98z m91 -44 c1 -11 -6 -18 -18 -18
-28 0 -31 11 -14 50 16 35 16 35 23 10 5 -14 8 -33 9 -42z"/>
<path d="M942 138 l3 -123 68 -3 67 -3 0 30 c0 27 -3 30 -37 33 l-38 3 -3 93
-3 92 -30 0 -30 0 3 -122z"/>
<path d="M1080 236 c0 -18 7 -25 30 -29 l30 -6 0 -96 0 -95 30 0 29 0 3 98 c3
92 4 97 26 100 16 3 22 10 22 28 0 24 -2 24 -85 24 -83 0 -85 -1 -85 -24z"/>
<path d="M1292 138 l3 -123 28 -3 c26 -3 27 -2 27 47 l0 51 50 0 50 0 0 -51
c0 -49 1 -50 28 -47 l27 3 3 123 3 122 -30 0 c-29 0 -30 -2 -33 -47 l-3 -48
-45 0 -45 0 -3 48 c-3 45 -4 47 -33 47 l-30 0 3 -122z"/>
</g>
</svg>
