<?xml version="1.0" standalone="no"?>
<!DOCTYPE svg PUBLIC "-//W3C//DTD SVG 20010904//EN"
 "http://www.w3.org/TR/2001/REC-SVG-20010904/DTD/svg10.dtd">
<svg version="1.0" xmlns="http://www.w3.org/2000/svg"
 width="222.000000pt" height="100.000000pt" viewBox="0 0 222.000000 100.000000"
 preserveAspectRatio="xMidYMid meet">

<g transform="translate(0.000000,100.000000) scale(0.100000,-0.100000)"
fill="#000000" stroke="none">
<path d="M1760 809 c-65 -29 -108 -75 -125 -133 -39 -131 10 -246 124 -293 76
-32 227 -13 291 37 23 18 24 20 9 35 -15 16 -20 15 -58 -11 -58 -38 -133 -44
-188 -15 -60 30 -86 78 -90 170 -5 89 12 132 66 168 68 46 215 20 243 -42 18
-39 28 -30 28 25 l0 49 -52 16 c-75 22 -192 19 -248 -6z"/>
<path d="M150 810 c0 -5 6 -10 14 -10 26 0 31 -23 36 -177 5 -163 11 -181 71
-225 55 -41 193 -41 249 1 54 39 64 73 68 230 2 80 9 152 14 159 14 16 93 15
107 -2 8 -9 11 -69 9 -192 -3 -175 -4 -179 -25 -189 -42 -18 -24 -25 67 -25
91 0 109 7 68 25 -20 9 -23 18 -26 81 l-3 71 65 6 c116 11 166 54 166 141 0
57 -20 89 -67 107 -31 12 -473 12 -473 0 0 -5 11 -12 24 -15 31 -8 40 -57 34
-194 -6 -148 -42 -197 -144 -197 -45 0 -58 4 -81 28 l-28 27 -3 166 c-3 160
-3 166 17 171 48 12 15 23 -69 23 -53 0 -90 -4 -90 -10z m767 -34 c55 -47 27
-145 -50 -175 -60 -23 -67 -14 -67 87 0 55 4 92 12 100 20 20 75 14 105 -12z"/>
<path d="M1060 811 c0 -5 9 -11 20 -14 25 -6 25 -36 2 -237 -17 -144 -17 -145
-47 -160 -30 -15 -30 -15 39 -18 76 -3 89 2 60 22 -13 10 -19 24 -18 47 3 46
25 243 28 246 1 2 15 -27 30 -65 15 -37 46 -109 68 -160 54 -121 65 -121 117
3 21 50 49 115 62 145 14 30 30 66 36 80 8 20 12 -1 18 -110 7 -141 -1 -190
-30 -190 -8 0 -15 -4 -15 -10 0 -6 37 -10 90 -10 91 0 109 7 68 25 -22 10 -23
17 -32 178 -9 174 -4 217 29 217 8 0 15 5 15 10 0 6 -30 10 -69 10 l-69 0 -66
-150 c-36 -82 -66 -155 -66 -162 0 -7 -3 -8 -9 -2 -9 9 -112 249 -125 292 -7
20 -14 22 -72 22 -35 0 -64 -4 -64 -9z"/>
<path d="M216 263 c-3 -3 -6 -24 -6 -45 0 -37 1 -38 35 -38 19 0 35 5 35 10 0
6 -9 10 -20 10 -15 0 -20 7 -20 29 0 30 -12 46 -24 34z"/>
<path d="M297 263 c-2 -5 -5 -25 -6 -45 -2 -29 1 -38 13 -38 12 0 16 11 16 45
0 40 -12 59 -23 38z"/>
<path d="M347 263 c-4 -3 -7 -24 -7 -45 0 -27 4 -38 15 -38 8 0 15 7 15 15 0
8 9 15 20 15 27 0 25 18 -2 23 l-23 4 23 2 c34 2 28 31 -6 31 -16 0 -32 -3
-35 -7z"/>
<path d="M430 225 c0 -45 0 -45 35 -45 39 0 48 16 13 23 l-23 4 23 2 c12 0 22
5 22 10 0 5 -10 12 -22 14 l-23 4 23 2 c38 2 27 31 -13 31 -35 0 -35 0 -35
-45z"/>
<path d="M578 259 c-25 -14 -23 -65 2 -79 24 -13 63 -4 57 13 -2 7 -14 11 -25
9 -17 -2 -22 2 -22 17 0 16 6 21 25 21 28 0 34 15 9 24 -21 8 -26 7 -46 -5z"/>
<path d="M666 263 c-3 -3 -6 -24 -6 -45 0 -27 4 -38 15 -38 8 0 15 7 15 15 0
8 7 15 15 15 8 0 15 -7 15 -15 0 -8 5 -15 10 -15 6 0 10 20 10 45 0 25 -4 45
-10 45 -5 0 -10 -9 -10 -20 0 -11 -7 -20 -15 -20 -8 0 -15 6 -15 14 0 17 -14
28 -24 19z"/>
<path d="M776 230 c-9 -22 -16 -41 -16 -43 0 -1 20 -2 45 -3 27 -1 45 4 45 10
0 16 -38 76 -49 76 -5 0 -16 -18 -25 -40z"/>
<path d="M870 225 c0 -45 20 -66 21 -22 l0 22 16 -22 c26 -38 43 -29 43 23 0
27 -4 43 -10 39 -5 -3 -10 -13 -10 -22 0 -14 -4 -13 -23 5 -13 12 -26 22 -30
22 -4 0 -7 -20 -7 -45z"/>
<path d="M985 247 c-26 -40 6 -83 53 -70 30 7 31 53 2 53 -22 0 -27 -15 -7
-24 6 -3 3 -5 -8 -3 -28 3 -25 31 3 35 28 4 24 26 -6 30 -13 2 -26 -5 -37 -21z"/>
<path d="M1087 263 c-11 -10 -8 -83 3 -83 6 0 10 20 10 45 0 46 -2 50 -13 38z"/>
<path d="M1130 225 c0 -25 5 -45 10 -45 6 0 10 7 10 15 0 8 4 15 9 15 5 0 11
-7 15 -15 3 -8 12 -15 21 -15 11 0 15 11 15 45 0 25 -4 45 -10 45 -5 0 -10
-12 -10 -27 -1 -24 -2 -25 -11 -11 -5 10 -19 22 -29 28 -19 10 -20 7 -20 -35z"/>
<path d="M1248 259 c-25 -14 -24 -65 2 -79 31 -17 70 -2 70 26 0 18 -6 24 -21
24 -15 0 -19 -4 -15 -16 4 -11 1 -14 -12 -12 -28 5 -20 33 11 36 30 4 36 17
11 26 -21 8 -26 7 -46 -5z"/>
<path d="M1377 263 c-4 -3 -7 -24 -7 -45 0 -27 4 -38 15 -38 8 0 15 6 15 13 0
6 11 12 25 12 14 0 25 -6 25 -12 0 -7 5 -13 10 -13 6 0 10 20 10 45 0 47 -9
56 -30 30 -12 -14 -15 -14 -30 0 -18 17 -24 18 -33 8z"/>
<path d="M1490 226 l0 -46 42 0 c42 0 44 13 3 23 -18 4 -18 5 3 6 12 0 22 6
22 11 0 6 -10 10 -22 11 l-23 1 23 6 c36 11 31 27 -10 30 l-38 3 0 -45z"/>
<path d="M1587 263 c-4 -3 -7 -24 -7 -45 0 -36 1 -38 33 -38 37 0 57 15 57 41
0 31 -63 63 -83 42z m53 -43 c0 -11 -7 -20 -15 -20 -8 0 -15 9 -15 20 0 11 7
20 15 20 8 0 15 -9 15 -20z"/>
<path d="M1687 263 c-4 -3 -7 -24 -7 -45 0 -27 4 -38 15 -38 11 0 15 12 15 45
0 42 -7 54 -23 38z"/>
<path d="M1747 252 c-9 -10 -17 -25 -17 -34 0 -24 36 -51 59 -43 29 9 26 25
-4 25 -18 0 -25 5 -25 20 0 15 7 20 26 20 16 0 24 5 22 13 -7 20 -43 19 -61
-1z"/>
<path d="M1836 263 c-3 -3 -6 -24 -6 -45 0 -27 4 -38 15 -38 11 0 15 11 15 39
0 38 -10 57 -24 44z"/>
<path d="M1887 263 c-4 -3 -7 -24 -7 -45 0 -27 4 -38 15 -38 8 0 15 8 15 18 1
16 1 16 14 0 23 -31 36 -21 36 27 0 25 -4 45 -10 45 -5 0 -10 -10 -10 -22 l0
-21 -23 21 c-13 12 -27 19 -30 15z"/>
<path d="M1987 264 c-4 -4 -7 -25 -7 -46 0 -38 0 -38 40 -38 45 0 56 19 13 21
-24 2 -25 2 -5 6 12 2 22 8 22 13 0 5 -10 11 -22 13 -19 4 -18 5 5 6 18 0 27
6 25 14 -5 13 -60 22 -71 11z"/>
</g>
</svg>
